<?xml version="1.0" standalone="no"?>
<!DOCTYPE svg PUBLIC "-//W3C//DTD SVG 20010904//EN"
 "http://www.w3.org/TR/2001/REC-SVG-20010904/DTD/svg10.dtd">
<svg version="1.0" xmlns="http://www.w3.org/2000/svg"
 width="174.000000pt" height="178.000000pt" viewBox="0 0 174.000000 178.000000"
 preserveAspectRatio="xMidYMid meet">

<g transform="translate(0.000000,178.000000) scale(0.100000,-0.100000)"
fill="#000000" stroke="none">
<path d="M1467 1681 c-109 -42 -201 -81 -205 -87 -4 -5 -69 -36 -145 -69 -75
-32 -136 -60 -134 -62 2 -2 68 24 147 57 78 33 143 59 144 58 1 -2 10 -15 19
-31 l18 -27 -317 -209 -317 -209 -71 75 c-39 42 -72 79 -74 82 -1 4 97 49 218
100 121 52 219 96 217 98 -2 2 -106 -40 -231 -93 l-226 -96 60 -68 c33 -37 78
-84 100 -104 23 -20 38 -41 35 -46 -5 -9 19 -235 31 -290 6 -23 11 -19 88 64
l83 89 38 -26 c21 -14 42 -24 47 -21 7 5 442 567 611 792 43 56 74 102 70 101
-4 0 -97 -35 -206 -78z m133 35 c0 -7 -253 -179 -270 -183 -15 -4 -57 53 -47
63 5 5 298 121 310 123 4 1 7 -1 7 -3z m3 -30 c-39 -51 -215 -251 -224 -254
-14 -5 -44 67 -33 78 11 11 268 200 272 200 2 0 -5 -11 -15 -24z m-125 -178
c-19 -24 -133 -171 -253 -328 -120 -157 -222 -289 -227 -295 -8 -9 -78 21 -78
35 0 15 572 627 589 629 2 1 -12 -18 -31 -41z m-173 -17 c-28 -25 -560 -410
-577 -416 -8 -3 -20 1 -27 8 -9 12 42 50 301 221 172 113 315 206 318 206 2 0
-4 -8 -15 -19z m40 -31 c8 -16 15 -32 15 -35 0 -3 -78 -90 -173 -193 -95 -103
-231 -250 -301 -327 -71 -77 -132 -141 -135 -143 -10 -3 -42 281 -33 289 17
15 604 439 608 439 2 0 10 -13 19 -30z"/>
<path d="M1584 1556 c-165 -232 -397 -535 -502 -654 -272 -309 -586 -577 -753
-643 -68 -26 -93 -24 -119 9 -29 36 -22 97 23 201 44 103 106 213 116 206 5
-2 8 3 7 13 0 9 4 16 10 15 7 -1 11 5 10 15 0 9 4 16 11 15 8 -2 10 4 6 14 -4
10 -2 14 5 9 6 -3 14 -1 18 5 5 8 3 9 -6 4 -8 -5 -11 -3 -8 6 3 8 10 13 16 12
5 -1 16 5 24 15 12 16 11 16 -6 2 -11 -8 -22 -13 -25 -11 -10 8 -197 -277
-256 -390 -69 -133 -95 -208 -95 -270 0 -41 4 -51 25 -65 34 -22 97 -6 190 48
158 94 290 203 539 447 182 179 255 262 406 459 46 61 86 109 88 107 5 -4
-136 -189 -212 -280 -99 -117 -327 -352 -446 -460 -222 -201 -412 -327 -513
-341 -40 -6 -49 -3 -71 19 -14 14 -26 22 -26 17 0 -6 9 -19 20 -30 68 -68 260
32 554 289 138 119 437 432 550 575 108 137 188 247 163 227 -10 -8 -17 -9
-17 -3 0 11 19 27 32 27 3 0 10 4 15 9 5 5 2 6 -6 1 -9 -5 -12 -3 -9 6 3 8 10
13 16 12 5 -1 16 5 24 15 12 15 11 16 -4 3 -10 -7 -18 -9 -18 -3 0 11 32 40
36 32 1 -3 6 -1 11 4 5 5 3 6 -4 2 -22 -12 -15 1 39 76 76 107 270 400 266
403 -2 1 -58 -75 -124 -169z"/>
</g>
</svg>
